<?xml version="1.0" encoding="UTF-8"?>
<!DOCTYPE svg PUBLIC "-//W3C//DTD SVG 1.1//EN" "http://www.w3.org/Graphics/SVG/1.1/DTD/svg11.dtd">
<!-- Creator: CorelDRAW X7 -->
<svg xmlns="http://www.w3.org/2000/svg" xml:space="preserve" width="848px" height="402px" version="1.1" style="shape-rendering:geometricPrecision; text-rendering:geometricPrecision; image-rendering:optimizeQuality; fill-rule:evenodd; clip-rule:evenodd"
viewBox="0 0 848 403"
 xmlns:xlink="http://www.w3.org/1999/xlink">
 <defs>
  <style type="text/css">
   <![CDATA[
    .fil2 {fill:#F58634}
    .fil0 {fill:#E6E7E8;fill-rule:nonzero}
    .fil1 {fill:#F58634;fill-rule:nonzero}
   ]]>
  </style>
 </defs>
 <g id="Layer_x0020_1">
  <metadata id="CorelCorpID_0Corel-Layer"/>
  <g id="_329292360">
   <path class="fil0" d="M175 303l-1 -14 -7 14 8 0zm2 -23l3 29c0,2 1,2 1,3 0,0 0,1 0,1 0,0 1,0 1,1 1,0 1,1 1,1 0,1 0,1 0,1 0,0 0,0 0,0l-9 0 0 -1c0,0 0,0 1,0 0,-1 0,-1 0,-1 0,0 0,0 0,0 1,-1 1,-1 1,-2 0,0 0,-1 0,-1 0,0 0,0 0,-1l0 -4 -10 0 -3 4c0,1 0,1 0,2 0,0 0,0 0,1 0,0 0,0 0,1 1,0 1,1 1,1 0,0 0,0 0,0 0,0 0,1 0,1l-7 0 0 0c0,-1 1,-2 1,-2 1,0 1,0 1,-1 1,0 1,-1 2,-3l0 0 13 -25 -1 -3 0 0c0,0 0,0 0,-1 1,0 1,0 1,0l3 -1zm44 30c-2,2 -3,4 -5,5 -2,1 -3,1 -5,1 -4,0 -7,-1 -9,-3 -2,-3 -3,-6 -3,-11 0,-2 0,-5 1,-8 1,-3 2,-5 4,-8 2,-2 3,-3 5,-4 2,-1 4,-2 6,-2 1,0 2,0 3,1 1,0 2,0 3,1 0,0 0,0 0,0 1,0 1,0 1,0 0,0 1,0 1,0 0,0 0,0 1,-1l1 1 -2 8c0,0 0,0 0,1 0,0 0,0 0,0 -1,0 -2,-1 -2,-3 0,0 0,0 0,0 0,-2 -1,-3 -2,-4 -1,-1 -2,-2 -3,-2 -2,0 -4,1 -5,2 -2,1 -3,3 -4,6 -1,1 -2,3 -2,6 -1,2 -1,5 -1,7 0,3 0,6 2,8 1,2 3,3 5,3 2,0 3,-1 4,-1 2,-1 3,-2 4,-4l2 1zm17 -17c-1,0 -2,0 -3,1 -1,1 -2,2 -3,4 0,1 -1,2 -1,4 -1,2 -1,3 -1,5 0,2 1,4 2,6 0,1 2,2 3,2 1,0 2,-1 3,-1 1,-1 1,-2 2,-3 1,-1 2,-3 2,-5 1,-2 1,-4 1,-6 0,-2 0,-4 -1,-5 -1,-2 -2,-2 -4,-2zm-12 12c0,-2 1,-4 1,-6 1,-2 3,-4 4,-5 1,-1 2,-2 4,-2 1,-1 2,-1 3,-1 3,0 5,1 7,3 2,2 2,4 2,8 0,1 0,3 0,5 -1,2 -2,3 -3,4 -1,2 -2,3 -4,4 -1,1 -3,1 -5,1 -3,0 -5,-1 -6,-3 -2,-2 -3,-4 -3,-8zm33 -10c2,-2 3,-3 5,-3 1,-1 2,-1 4,-1 1,0 2,0 3,1 1,0 2,1 2,3 1,-2 3,-3 4,-3 2,-1 3,-1 4,-1 2,0 3,0 4,1 1,1 2,2 2,4 0,0 0,1 -1,1 0,1 0,2 0,3l-3 10c0,0 0,1 0,2 0,0 0,1 0,1 0,0 0,1 0,1 0,0 0,0 1,0 0,0 0,0 0,0 1,0 1,0 1,-1l1 1c-1,1 -1,2 -2,2 -1,0 -2,0 -2,0 -1,0 -2,0 -3,0 0,-1 0,-1 0,-2 0,-1 0,-1 0,-2 0,-1 0,-1 0,-2l3 -12c0,-1 0,-1 0,-2 1,0 1,-1 1,-1 0,-1 -1,-1 -1,-2 -1,0 -1,0 -2,0 -1,0 -2,0 -3,1 -1,1 -3,2 -4,3l-5 19 -4 0 4 -18c1,-1 1,-1 1,-2 0,0 0,-1 0,-1 0,-1 0,-1 -1,-2 0,0 -1,0 -1,0 -1,0 -3,0 -4,1 -1,1 -3,2 -4,3l-5 19 -4 0 5 -18c0,-1 0,-1 0,-2 0,0 0,0 0,-1 0,0 0,0 -1,-1 0,0 0,0 0,0 0,0 0,0 0,0 0,-1 0,-1 -1,-1 0,0 1,0 1,0 0,0 0,-1 0,-1 1,0 2,0 3,0 1,0 2,-1 3,-1l-1 4zm40 0c1,-2 3,-3 4,-3 1,-1 3,-1 4,-1 2,0 3,0 4,1 1,0 1,1 1,3 2,-2 3,-3 5,-3 1,-1 3,-1 4,-1 2,0 3,0 4,1 1,1 1,2 1,4 0,0 0,1 0,1 0,1 -1,2 -1,3l-2 10c0,0 0,1 -1,2 0,0 0,1 0,1 0,0 0,1 0,1 1,0 1,0 1,0 0,0 0,0 1,0 0,0 0,0 1,-1l0 1c0,1 -1,2 -2,2 0,0 -1,0 -2,0 -1,0 -2,0 -2,0 -1,-1 -1,-1 -1,-2 0,-1 0,-1 0,-2 0,-1 1,-1 1,-2l3 -12c0,-1 0,-1 0,-2 0,0 0,-1 0,-1 0,-1 0,-1 -1,-2 0,0 -1,0 -1,0 -1,0 -2,0 -4,1 -1,1 -2,2 -4,3l-4 19 -4 0 4 -18c0,-1 0,-1 0,-2 0,0 0,-1 0,-1 0,-1 0,-1 0,-2 -1,0 -1,0 -2,0 -1,0 -2,0 -4,1 -1,1 -2,2 -4,3l-4 19 -4 0 4 -18c0,-1 0,-1 0,-2 0,0 0,0 0,-1 0,0 0,0 0,-1 0,0 -1,0 -1,0 0,0 0,0 0,0 0,-1 0,-1 0,-1 0,0 0,0 0,0 0,0 0,-1 0,-1 1,0 2,0 3,0 2,0 3,-1 4,-1l-1 4zm40 -4l-4 19 0 0c0,2 0,3 0,3 0,0 0,1 0,1 0,0 0,0 0,0 0,0 1,0 1,0 0,0 1,-1 1,-1l1 1c-1,1 -2,2 -2,2 -1,0 -2,0 -3,0 -1,0 -1,0 -2,0 0,-1 -1,-2 -1,-2 0,-1 0,-1 0,-2 1,0 1,-1 1,-2l3 -12c0,-1 0,-1 0,-2 0,0 0,0 0,-1 0,0 0,-1 -1,-1 0,0 0,0 0,0 0,0 0,0 0,0 0,0 0,-1 0,-1 0,0 0,0 0,0 0,0 0,-1 0,-1 1,0 2,0 3,0 1,0 2,-1 3,-1zm-3 -8c0,-1 0,-1 1,-2 0,-1 1,-1 2,-1 0,0 1,0 1,1 1,1 1,1 1,2 0,1 0,2 -1,2 0,1 -1,1 -1,1 -1,0 -2,0 -2,-1 -1,0 -1,-1 -1,-2zm17 2l-2 6 4 0 -1 3 -3 0 -4 17c-1,1 -1,1 -1,1 0,0 0,1 0,1 0,0 0,1 1,1 0,0 0,0 0,0 0,0 1,0 1,0 1,0 1,-1 2,-1l1 1c-1,1 -2,2 -3,2 -1,0 -2,1 -3,1 -1,0 -1,-1 -2,-1 -1,-1 -1,-2 -1,-3 0,0 0,-1 0,-1 0,-1 0,-1 0,-1l5 -17 -2 0c0,-1 0,-1 0,-2 0,0 1,-1 1,-1 0,0 0,0 0,0 1,0 1,-1 1,-1 1,0 1,-1 1,-2 0,-1 0,-1 1,-2 0,0 0,0 1,-1 0,0 1,0 1,0 1,0 1,0 2,0 0,0 0,0 0,0zm11 10c2,-2 3,-3 4,-3 2,-1 3,-1 4,-1 2,0 3,0 4,1 1,0 1,1 2,3 1,-2 3,-3 4,-3 2,-1 3,-1 4,-1 2,0 3,0 4,1 1,1 1,2 1,4 0,0 0,1 0,1 0,1 0,2 0,3l-3 10c0,0 0,1 0,2 0,0 0,1 0,1 0,0 0,1 0,1 0,0 0,0 0,0 1,0 1,0 1,0 0,0 1,0 1,-1l1 1c-1,1 -2,2 -2,2 -1,0 -2,0 -3,0 -1,0 -1,0 -2,0 0,-1 0,-1 0,-2 0,-1 0,-1 0,-2 0,-1 0,-1 0,-2l3 -12c0,-1 0,-1 0,-2 0,0 0,-1 0,-1 0,-1 0,-1 0,-2 -1,0 -1,0 -2,0 -1,0 -2,0 -3,1 -2,1 -3,2 -5,3l-4 19 -4 0 4 -18c0,-1 0,-1 1,-2 0,0 0,-1 0,-1 0,-1 -1,-1 -1,-2 0,0 -1,0 -2,0 -1,0 -2,0 -3,1 -1,1 -3,2 -4,3l-5 19 -4 0 4 -18c1,-1 1,-1 1,-2 0,0 0,0 0,-1 0,0 -1,0 -1,-1 0,0 0,0 0,0 0,0 0,0 -1,0 0,-1 0,-1 0,-1 0,0 0,0 0,0 0,0 0,-1 1,-1 1,0 2,0 3,0 1,0 2,-1 3,-1l-1 4zm37 8c0,0 0,0 0,0 0,0 1,0 1,0 3,0 5,-1 7,-2 2,-2 3,-3 3,-6 0,0 0,-1 -1,-2 0,0 -1,0 -2,0 -1,0 -3,1 -5,2 -1,2 -2,5 -3,8zm11 8l1 2c-2,1 -3,2 -4,2 -2,1 -3,1 -5,1 -2,0 -4,0 -6,-2 -2,-2 -2,-4 -2,-7 0,-2 0,-5 1,-7 1,-2 2,-4 4,-6 2,-1 3,-2 5,-2 1,-1 3,-1 4,-1 2,0 3,0 4,1 1,1 2,2 2,3 0,3 -1,6 -4,7 -3,2 -6,3 -11,3l-1 0c0,0 0,1 0,1 0,1 0,1 0,1 0,2 0,4 1,5 1,1 3,2 4,2 1,0 2,0 3,-1 2,0 3,-1 4,-2zm10 5l-4 0 4 -18c1,-1 1,-1 1,-2 0,0 0,0 0,-1 0,0 0,0 -1,-1 0,0 0,0 0,0 0,0 0,0 0,0 -1,-1 -1,-1 -1,-1 0,0 0,0 0,0 0,0 1,-1 1,-1 1,0 2,0 3,0 1,0 2,-1 3,-1l-1 4c2,-2 3,-3 4,-3 2,-1 3,-1 4,-1 2,0 3,0 4,1 1,1 2,2 2,4 0,0 0,0 0,1 0,0 -1,1 -1,2l-2 11c0,0 0,0 -1,0 0,1 0,2 0,3 0,0 0,1 0,1 0,0 0,0 1,0 0,0 0,0 0,0 1,0 1,-1 1,-1l1 1c-1,1 -1,2 -2,2 -1,0 -2,0 -2,0 -1,0 -2,0 -2,0 -1,-1 -1,-1 -1,-2 0,-1 0,-1 0,-2 0,0 0,-1 0,-2l3 -12c0,-1 1,-2 1,-2 0,0 0,-1 0,-1 0,-1 0,-1 -1,-1 0,-1 -1,-1 -2,-1 -1,0 -2,0 -3,1 -1,1 -3,2 -4,3l-5 19zm33 -31l-1 6 3 0 0 3 -4 0 -4 17c0,1 0,1 0,1 0,0 0,1 0,1 0,0 0,1 0,1 0,0 0,0 1,0 0,0 0,0 1,0 0,0 1,-1 2,-1l0 1c-1,1 -1,2 -2,2 -1,0 -2,1 -3,1 -1,0 -2,-1 -2,-1 -1,-1 -1,-2 -1,-3 0,0 0,-1 0,-1 0,-1 0,-1 0,-1l4 -17 -2 0c0,-1 1,-1 1,-2 0,0 0,-1 1,-1 0,0 0,0 0,0 1,0 1,-1 1,-1 0,0 0,-1 1,-2 0,-1 0,-1 0,-2 0,0 1,0 1,-1 1,0 1,0 2,0 0,0 1,0 1,0 0,0 0,0 0,0zm23 6l-4 19 0 0c0,2 0,3 0,3 0,0 0,1 0,1 0,0 0,0 0,0 1,0 1,0 1,0 1,0 1,-1 1,-1l1 1c-1,1 -1,2 -2,2 -1,0 -2,0 -3,0 -1,0 -1,0 -2,0 0,-1 0,-2 0,-2 0,-1 0,-1 0,-2 0,0 0,-1 0,-2l3 -12c0,-1 0,-1 0,-2 0,0 0,0 0,-1 0,0 0,-1 0,-1 0,0 0,0 0,0 -1,0 -1,0 -1,0 0,0 0,-1 0,-1 0,0 0,0 0,0 0,0 0,-1 0,-1 1,0 2,0 3,0 1,0 2,-1 3,-1zm-3 -8c0,-1 1,-1 1,-2 1,-1 1,-1 2,-1 1,0 1,0 2,1 0,1 0,1 0,2 0,1 0,2 0,2 -1,1 -1,1 -2,1 -1,0 -1,0 -2,-1 0,0 -1,-1 -1,-2zm20 11c0,-1 -1,-1 -1,-1 -1,0 -1,0 -2,0 -1,0 -2,0 -3,1 -1,0 -1,1 -1,3 0,1 1,3 3,4 1,1 1,1 2,1 1,1 2,2 3,4 0,1 0,2 0,3 0,2 0,4 -2,5 -1,2 -4,2 -6,2 -2,0 -4,0 -6,-1 -1,-1 -2,-2 -2,-3 0,-1 1,-2 1,-2 1,-1 1,-1 2,-1 0,0 1,0 1,1 1,0 1,1 1,1 0,1 0,1 0,1 -1,1 -1,1 -1,1 1,1 1,1 2,1 0,0 1,1 2,1 1,0 2,-1 3,-2 1,-1 1,-2 1,-3 0,-1 -1,-3 -3,-5 -1,0 -1,-1 -1,-1 -2,-1 -3,-2 -3,-3 -1,-1 -1,-2 -1,-3 0,-2 1,-4 2,-5 2,-2 3,-2 6,-2 2,0 4,0 5,1 1,1 1,2 1,3 0,1 0,1 0,2 0,0 -1,1 -2,1 0,0 -1,-1 -1,-1 0,0 -1,-1 -1,-2 0,0 0,0 1,-1 0,0 0,0 0,0zm38 19l0 1c0,1 -1,2 -2,2 0,0 -1,1 -2,1 -1,0 -2,-1 -2,-1 -1,-1 -1,-1 -1,-2 0,0 0,-1 0,-1 0,0 0,0 0,0 -1,1 -2,2 -3,3 -1,0 -3,1 -4,1 -2,0 -3,-1 -4,-3 -2,-1 -2,-3 -2,-6 0,-2 0,-3 1,-5 0,-2 1,-4 2,-5 1,-3 3,-4 5,-5 1,-2 3,-2 5,-2 1,0 2,0 3,0 1,1 1,1 2,2l3 -2 1 0 -4 21c0,0 -1,0 -1,1 0,0 0,0 0,0 0,0 0,1 1,1 0,0 0,0 0,0 0,0 1,0 1,0 0,0 0,0 1,-1zm-6 -5l3 -11c0,0 0,-1 0,-1 0,0 0,0 0,-1 0,0 0,-1 -1,-2 -1,0 -1,-1 -2,-1 -1,0 -2,1 -3,1 -1,1 -2,2 -3,3 -1,2 -2,4 -3,6 -1,2 -1,4 -1,6 0,2 0,3 1,4 1,1 1,2 3,2 1,0 2,-1 4,-2 1,-1 2,-2 2,-4zm45 2c-1,2 -3,4 -4,5 -2,1 -4,1 -6,1 -3,0 -6,-1 -8,-3 -2,-3 -3,-6 -3,-11 0,-2 0,-5 1,-8 1,-3 2,-5 4,-8 1,-2 3,-3 5,-4 2,-1 4,-2 6,-2 1,0 2,0 3,1 1,0 2,0 2,1 1,0 1,0 1,0 0,0 1,0 1,0 0,0 0,0 1,0 0,0 0,0 0,-1l2 1 -2 8c0,0 0,0 0,1 0,0 0,0 -1,0 -1,0 -1,-1 -1,-3 0,0 0,0 0,0 -1,-2 -1,-3 -2,-4 -1,-1 -2,-2 -4,-2 -1,0 -3,1 -4,2 -2,1 -3,3 -5,6 0,1 -1,3 -2,6 0,2 0,5 0,7 0,3 0,6 1,8 2,2 4,3 6,3 1,0 3,-1 4,-1 1,-1 3,-2 4,-4l1 1zm18 -17c-1,0 -2,0 -3,1 -1,1 -2,2 -3,4 -1,1 -1,2 -2,4 0,2 0,3 0,5 0,2 0,4 1,6 1,1 2,2 4,2 1,0 2,-1 3,-1 0,-1 1,-2 2,-3 1,-1 2,-3 2,-5 1,-2 1,-4 1,-6 0,-2 0,-4 -1,-5 -1,-2 -3,-2 -4,-2zm-12 12c0,-2 0,-4 1,-6 1,-2 2,-4 4,-5 1,-1 2,-2 3,-2 2,-1 3,-1 4,-1 3,0 5,1 7,3 1,2 2,4 2,8 0,1 0,3 -1,5 0,2 -1,3 -2,4 -1,2 -3,3 -4,4 -2,1 -3,1 -5,1 -3,0 -5,-1 -7,-3 -1,-2 -2,-4 -2,-8z"/>
   <path class="fil0" d="M611 295c1,-2 3,-3 4,-3 2,-1 3,-1 4,-1 2,0 3,0 4,1 1,0 1,1 1,3 2,-2 4,-3 5,-3 1,-1 3,-1 4,-1 2,0 3,0 4,1 1,1 1,2 1,4 0,0 0,1 0,1 0,1 0,2 -1,3l-2 10c0,0 0,1 0,2 0,0 0,1 0,1 0,0 0,1 0,1 0,0 0,0 0,0 0,0 1,0 1,0 0,0 1,0 1,-1l1 1c-1,1 -2,2 -2,2 -1,0 -2,0 -3,0 -1,0 -1,0 -2,0 0,-1 -1,-1 -1,-2 0,-1 0,-1 1,-2 0,-1 0,-1 0,-2l3 -12c0,-1 0,-1 0,-2 0,0 0,-1 0,-1 0,-1 0,-1 0,-2 -1,0 -1,0 -2,0 -1,0 -2,0 -3,1 -2,1 -3,2 -5,3l-4 19 -4 0 4 -18c0,-1 0,-1 0,-2 0,0 0,-1 0,-1 0,-1 0,-1 0,-2 -1,0 -1,0 -2,0 -1,0 -2,0 -3,1 -2,1 -3,2 -5,3l-4 19 -4 0 4 -18c0,-1 0,-1 0,-2 1,0 1,0 1,-1 0,0 -1,0 -1,-1 0,0 0,0 0,0 0,0 -1,0 -1,0 0,-1 0,-1 0,-1 0,0 0,0 0,0 0,0 0,-1 0,-1 2,0 3,0 4,0 1,0 2,-1 3,-1l-1 4zm39 0c2,-2 3,-3 5,-3 1,-1 2,-1 4,-1 1,0 2,0 3,1 1,0 2,1 2,3 2,-2 3,-3 5,-3 1,-1 2,-1 4,-1 1,0 2,0 3,1 1,1 2,2 2,4 0,0 0,1 0,1 -1,1 -1,2 -1,3l-2 10c-1,0 -1,1 -1,2 0,0 0,1 0,1 0,0 0,1 0,1 0,0 0,0 1,0 0,0 0,0 0,0 1,0 1,0 1,-1l1 1c-1,1 -1,2 -2,2 -1,0 -2,0 -2,0 -1,0 -2,0 -2,0 -1,-1 -1,-1 -1,-2 0,-1 0,-1 0,-2 0,-1 0,-1 1,-2l2 -12c0,-1 1,-1 1,-2 0,0 0,-1 0,-1 0,-1 0,-1 -1,-2 0,0 -1,0 -2,0 0,0 -2,0 -3,1 -1,1 -3,2 -4,3l-5 19 -4 0 5 -18c0,-1 0,-1 0,-2 0,0 0,-1 0,-1 0,-1 0,-1 -1,-2 0,0 -1,0 -1,0 -1,0 -2,0 -4,1 -1,1 -3,2 -4,3l-4 19 -5 0 5 -18c0,-1 0,-1 0,-2 0,0 0,0 0,-1 0,0 0,0 -1,-1 0,0 0,0 0,0 0,0 0,0 0,0 0,-1 0,-1 0,-1 0,0 0,0 0,0 0,0 0,-1 0,-1 1,0 2,0 3,0 1,0 2,-1 3,-1l-1 4zm41 -4l-4 19 0 0c-1,2 -1,3 -1,3 0,0 0,1 0,1 0,0 1,0 1,0 0,0 0,0 1,0 0,0 0,-1 1,-1l0 1c0,1 -1,2 -2,2 -1,0 -1,0 -2,0 -1,0 -2,0 -2,0 -1,-1 -1,-2 -1,-2 0,-1 0,-1 0,-2 0,0 0,-1 1,-2l2 -12c1,-1 1,-1 1,-2 0,0 0,0 0,-1 0,0 0,-1 -1,-1 0,0 0,0 0,0 0,0 0,0 0,0 0,0 -1,-1 -1,-1 0,0 0,0 1,0 0,0 0,-1 0,-1 1,0 1,0 2,0 2,0 3,-1 4,-1zm-3 -8c0,-1 0,-1 0,-2 1,-1 2,-1 2,-1 1,0 2,0 2,1 1,1 1,1 1,2 0,1 0,2 -1,2 0,1 -1,1 -2,1 0,0 -1,0 -2,-1 0,0 0,-1 0,-2zm16 2l-1 6 3 0 0 3 -4 0 -4 17c0,1 0,1 0,1 0,0 0,1 0,1 0,0 0,1 0,1 0,0 1,0 1,0 0,0 1,0 1,0 0,0 1,-1 2,-1l0 1c0,1 -1,2 -2,2 -1,0 -2,1 -3,1 -1,0 -2,-1 -2,-1 -1,-1 -1,-2 -1,-3 0,0 0,-1 0,-1 0,-1 0,-1 0,-1l4 -17 -1 0c0,-1 0,-1 0,-2 0,0 0,-1 1,-1 0,0 0,0 0,0 1,0 1,-1 1,-1 0,0 0,-1 1,-2 0,-1 0,-1 0,-2 0,0 1,0 1,-1 1,0 1,0 2,0 0,0 1,0 1,0 0,0 0,0 0,0zm12 10c1,-2 3,-3 4,-3 1,-1 3,-1 4,-1 2,0 3,0 4,1 1,0 1,1 1,3 2,-2 4,-3 5,-3 1,-1 3,-1 4,-1 2,0 3,0 4,1 1,1 1,2 1,4 0,0 0,1 0,1 0,1 0,2 -1,3l-2 10c0,0 0,1 0,2 -1,0 -1,1 -1,1 0,0 0,1 1,1 0,0 0,0 0,0 0,0 1,0 1,0 0,0 0,0 1,-1l1 1c-1,1 -2,2 -3,2 0,0 -1,0 -2,0 -1,0 -2,0 -2,0 -1,-1 -1,-1 -1,-2 0,-1 0,-1 0,-2 1,-1 1,-1 1,-2l3 -12c0,-1 0,-1 0,-2 0,0 0,-1 0,-1 0,-1 0,-1 -1,-2 0,0 0,0 -1,0 -1,0 -2,0 -4,1 -1,1 -2,2 -4,3l-4 19 -4 0 4 -18c0,-1 0,-1 0,-2 0,0 0,-1 0,-1 0,-1 0,-1 0,-2 -1,0 -1,0 -2,0 -1,0 -2,0 -3,1 -2,1 -3,2 -5,3l-4 19 -4 0 4 -18c0,-1 0,-1 0,-2 0,0 0,0 0,-1 0,0 0,0 0,-1 0,0 0,0 0,0 -1,0 -1,0 -1,0 0,-1 0,-1 0,-1 0,0 0,0 0,0 0,0 0,-1 0,-1 1,0 3,0 4,0 1,0 2,-1 3,-1l-1 4zm36 8c1,0 1,0 1,0 0,0 0,0 1,0 3,0 5,-1 7,-2 2,-2 3,-3 3,-6 0,0 0,-1 -1,-2 0,0 -1,0 -2,0 -2,0 -3,1 -5,2 -1,2 -3,5 -4,8zm11 8l1 2c-1,1 -2,2 -4,2 -1,1 -2,1 -4,1 -3,0 -5,0 -6,-2 -2,-2 -3,-4 -3,-7 0,-2 1,-5 2,-7 1,-2 2,-4 4,-6 1,-1 3,-2 4,-2 2,-1 3,-1 5,-1 2,0 3,0 4,1 1,1 2,2 2,3 0,3 -2,6 -4,7 -3,2 -7,3 -11,3l-1 0c0,0 0,1 0,1 0,1 0,1 0,1 0,2 0,4 1,5 1,1 2,2 4,2 1,0 2,0 3,-1 1,0 2,-1 3,-2zm11 5l-4 0 4 -18c0,-1 0,-1 0,-2 0,0 0,0 0,-1 0,0 0,0 0,-1 0,0 0,0 0,0 -1,0 -1,0 -1,0 0,-1 0,-1 0,-1 0,0 0,0 0,0 0,0 0,-1 0,-1 1,0 3,0 4,0 1,0 2,-1 3,-1l-1 4c1,-2 3,-3 4,-3 1,-1 3,-1 4,-1 2,0 3,0 4,1 1,1 1,2 1,4 0,0 0,0 0,1 0,0 0,1 0,2l-3 11c0,0 0,0 0,0 0,1 0,2 0,3 0,0 0,1 0,1 0,0 0,0 0,0 1,0 1,0 1,0 0,0 1,-1 1,-1l1 1c-1,1 -2,2 -2,2 -1,0 -2,0 -3,0 -1,0 -1,0 -2,0 0,-1 -1,-1 -1,-2 0,-1 1,-1 1,-2 0,0 0,-1 0,-2l3 -12c0,-1 0,-2 0,-2 0,0 0,-1 0,-1 0,-1 0,-1 0,-1 -1,-1 -1,-1 -2,-1 -1,0 -2,0 -3,1 -2,1 -3,2 -5,3l-4 19zm33 -31l-2 6 4 0 -1 3 -3 0 -4 17c0,1 0,1 0,1 0,0 0,1 0,1 0,0 0,1 0,1 0,0 0,0 0,0 1,0 1,0 2,0 0,0 1,-1 1,-1l1 1c-1,1 -2,2 -2,2 -1,0 -2,1 -3,1 -1,0 -2,-1 -3,-1 0,-1 -1,-2 -1,-3 0,0 0,-1 1,-1 0,-1 0,-1 0,-1l4 -17 -2 0c0,-1 0,-1 0,-2 1,0 1,-1 2,-1 0,0 0,0 0,0 0,0 1,-1 1,-1 0,0 0,-1 0,-2 0,-1 1,-1 1,-2 0,0 0,0 1,-1 0,0 1,0 2,0 0,0 0,0 1,0 0,0 0,0 0,0z"/>
  </g>
  <path class="fil1" d="M184 260c8,0 16,-2 22,-6 10,-7 12,-18 12,-24 0,-11 -4,-20 -21,-33l-4 -3c-13,-11 -17,-16 -17,-24 0,-10 8,-17 17,-17 14,0 17,6 18,8 1,2 2,5 2,7 0,1 0,2 1,2 1,0 1,-1 1,-3 0,-10 1,-15 1,-15 0,-1 0,-1 -2,-1 -1,0 -2,-1 -5,-1 -3,-1 -7,-2 -13,-2 -18,0 -29,11 -29,26 0,10 3,19 18,31l7 5c12,10 16,16 16,26 0,9 -7,19 -20,19 -10,0 -19,-4 -21,-15 -1,-2 -1,-4 -1,-5 0,-1 0,-2 -1,-2 -1,0 -1,1 -1,3 0,2 -1,8 -1,15 0,4 0,4 2,5 6,3 13,4 19,4zm145 -58c0,-19 0,-23 0,-26 0,-5 1,-6 4,-7 2,0 3,0 3,0 1,0 2,-1 2,-1 0,-1 -1,-1 -3,-1 -3,0 -11,0 -12,0 -1,0 -9,0 -14,0 -2,0 -2,0 -2,1 0,0 0,1 1,1 1,0 3,0 4,0 4,0 5,2 5,7 0,3 0,7 0,26l0 2c0,1 0,1 0,1l-53 0c0,0 0,0 0,-1l0 -2c0,-19 0,-23 0,-26 0,-5 1,-6 4,-7 2,0 3,0 3,0 1,0 1,-1 1,-1 0,-1 0,-1 -2,-1 -3,0 -11,0 -12,0 -1,0 -9,0 -14,0 -2,0 -2,0 -2,1 0,0 0,1 1,1 1,0 3,0 4,0 4,0 5,2 5,7 0,3 0,7 0,26l0 21c0,12 0,21 0,26 -1,4 -1,6 -4,6 -1,1 -2,1 -3,1 -1,0 -1,1 -1,1 0,1 0,1 2,1 3,0 11,0 12,0 1,0 9,0 16,0 1,0 2,0 2,-1 0,0 -1,-1 -1,-1 -2,0 -4,0 -6,-1 -4,0 -4,-2 -5,-6 0,-5 0,-14 0,-26l0 -12c0,0 0,-1 0,-1l53 0c0,0 0,1 0,1l0 12c0,12 0,21 0,26 -1,3 -1,6 -4,6 -1,1 -2,1 -3,1 -1,0 -1,1 -1,1 0,1 0,1 2,1 3,0 11,0 12,0 1,0 9,0 16,0 1,0 2,0 2,-1 0,0 -1,-1 -1,-1 -1,0 -4,0 -6,-1 -4,0 -4,-2 -5,-6 0,-5 0,-14 0,-26l0 -21zm52 0c0,-19 0,-23 1,-26 0,-5 1,-6 4,-7 1,0 2,0 3,0 0,0 1,-1 1,-1 0,-1 -1,-1 -2,-1 -4,0 -12,0 -12,0 -1,0 -9,0 -13,0 -2,0 -2,0 -2,1 0,0 0,1 1,1 1,0 2,0 4,0 2,1 3,2 4,7 0,3 0,7 0,26l0 21c0,12 0,21 -1,26 0,4 -1,6 -3,6 -1,1 -3,1 -4,1 -1,0 -1,1 -1,1 0,1 1,1 2,1 4,0 12,0 13,0 0,0 8,0 15,0 2,0 2,0 2,-1 0,0 0,-1 -1,-1 -1,0 -4,0 -6,-1 -3,0 -4,-2 -4,-6 -1,-5 -1,-14 -1,-26l0 -21zm48 -21c-2,-4 -3,-8 -3,-10 0,-1 0,-1 1,-2 1,0 3,0 5,0 1,0 1,-1 1,-2 0,0 -1,0 -3,0 -5,0 -11,0 -12,0 -2,0 -9,0 -15,0 -2,0 -3,0 -3,0 0,1 0,2 1,2 1,0 3,0 5,0 4,1 6,2 9,9l30 74c3,6 4,8 5,8 1,0 2,-2 5,-10 3,-5 9,-19 16,-36 7,-15 13,-30 14,-33 4,-8 6,-10 7,-11 3,-1 5,-1 6,-1 1,0 2,-1 2,-2 0,0 -1,0 -2,0 -4,0 -9,0 -10,0 -2,0 -7,0 -12,0 -2,0 -3,0 -3,1 0,0 1,1 1,1 2,0 3,0 5,0 1,0 1,2 1,3 0,1 0,2 -1,4 -3,9 -19,50 -26,66l-24 -61zm69 64c-2,6 -5,10 -10,11 -1,0 -3,0 -4,0 -1,0 -1,0 -1,1 0,1 1,1 2,1 5,0 12,0 13,0 1,0 8,0 11,0 1,0 2,0 2,-1 0,-1 0,-1 -1,-1l-1 0c-3,0 -5,-1 -5,-3 0,-2 1,-5 2,-8l7 -20c1,0 1,-1 2,-1l28 0c1,0 1,0 2,1l11 28c1,2 -1,3 -1,3 -1,0 -1,0 -1,1 0,1 2,1 4,1 9,0 18,0 20,0 1,0 3,0 3,-1 0,-1 -1,-1 -2,-1 -1,0 -3,0 -5,-1 -2,-1 -6,-2 -10,-13 -8,-18 -28,-68 -30,-73 -2,-3 -2,-5 -3,-5 -1,0 -2,1 -3,5l-30 76zm18 -26c0,0 0,0 0,-1l11 -33c1,-2 2,-2 3,0l12 33c0,1 0,1 0,1l-26 0zm93 -17c0,-19 0,-23 0,-26 0,-5 1,-7 5,-7 1,0 3,-1 4,-1 0,0 1,0 1,0 0,-1 -1,-1 -2,-1 -4,0 -14,0 -14,0 -1,0 -9,0 -14,0 -2,0 -2,0 -2,1 0,0 0,1 1,1 1,0 3,0 4,0 4,0 5,2 5,7 0,3 0,7 0,26l0 21c0,12 0,21 0,26 -1,4 -1,6 -4,6 -1,1 -2,1 -4,1 0,0 -1,1 -1,1 0,1 1,1 2,1 2,0 5,0 8,0 2,0 4,0 5,0 4,0 8,0 14,0 5,0 12,0 21,0 7,0 7,0 8,-3 1,-4 2,-11 2,-12 0,-1 0,-2 -1,-2 0,0 -1,1 -1,2 0,2 -1,5 -3,6 -3,4 -9,4 -15,4 -10,0 -15,-1 -17,-3 -2,-2 -2,-9 -2,-27l0 -21zm76 0c0,-19 0,-23 0,-26 0,-5 1,-6 4,-7 2,0 3,0 3,0 1,0 1,-1 1,-1 0,-1 0,-1 -2,-1 -3,0 -11,0 -12,0 -1,0 -9,0 -13,0 -1,0 -2,0 -2,1 0,0 1,1 1,1 1,0 3,0 4,0 3,1 4,2 4,7 0,3 0,7 0,26l0 21c0,12 0,21 0,26 -1,4 -1,6 -4,6 -1,1 -2,1 -3,1 -1,0 -1,1 -1,1 0,1 0,1 2,1 3,0 11,0 12,0 1,0 9,0 16,0 1,0 2,0 2,-1 0,0 -1,-1 -1,-1 -2,0 -4,0 -6,-1 -4,0 -4,-2 -5,-6 0,-5 0,-14 0,-26l0 -21zm41 21c0,12 0,21 -1,26 0,4 -1,6 -3,6 -1,1 -3,1 -4,1 -1,0 -1,1 -1,1 0,1 1,1 2,1 4,0 11,0 12,0 1,0 9,0 15,0 2,0 2,0 2,-1 0,0 0,-1 -1,-1 -1,0 -3,0 -5,-1 -4,0 -4,-2 -5,-6 0,-5 0,-14 0,-26l0 -12 0 0c6,7 33,35 38,39 6,4 9,7 16,8 2,0 5,0 8,0l7 0c2,0 2,0 2,-1 0,-1 0,-1 -1,-1 -1,0 -5,0 -8,-2 -6,-2 -7,-4 -18,-13 -5,-5 -31,-31 -34,-34 3,-3 24,-24 27,-27 6,-5 8,-8 13,-10 2,-1 5,-2 7,-2 1,0 1,0 1,-1 0,0 0,0 -2,0 -3,0 -11,0 -12,0 -3,0 -6,0 -9,0 -1,0 -1,0 -1,0 0,1 0,1 1,2 1,0 1,0 1,2 0,2 -3,5 -7,9 -4,4 -27,27 -29,29l0 0 0 -7c0,-19 0,-23 0,-26 0,-5 1,-6 5,-7 1,0 2,0 3,0 0,0 1,-1 1,-1 0,-1 -1,-1 -2,-1 -4,0 -12,0 -13,0 0,0 -8,0 -14,0 -1,0 -2,0 -2,1 0,0 1,1 1,1 1,0 4,0 5,0 4,0 4,2 5,7 0,3 0,7 0,26l0 21z"/>
  <path class="fil2" d="M69 58c0,0 -105,91 -56,184 49,94 64,136 20,161 0,0 76,-23 1,-165 0,0 -59,-97 35,-180z"/>
  <path class="fil2" d="M50 345c0,0 105,-92 56,-185 -49,-93 -64,-136 -20,-160 0,0 -76,23 0,164 0,0 58,97 -36,181z"/>
  <path class="fil1" d="M825 121c4,0 8,1 11,3 4,2 7,5 9,8 2,4 3,8 3,12 0,4 -1,8 -3,11 -2,4 -5,7 -9,9 -3,2 -7,3 -11,3 -4,0 -8,-1 -11,-3 -4,-2 -7,-5 -9,-9 -2,-3 -3,-7 -3,-11 0,-4 1,-8 3,-12 2,-3 5,-6 9,-8 3,-2 7,-3 11,-3zm0 4c-3,0 -6,1 -9,2 -3,2 -6,4 -7,7 -2,3 -3,7 -3,10 0,3 1,6 2,9 2,3 5,6 8,7 3,2 6,3 9,3 3,0 7,-1 10,-3 3,-1 5,-4 7,-7 1,-3 2,-6 2,-9 0,-3 -1,-7 -2,-10 -2,-3 -4,-5 -8,-7 -3,-1 -6,-2 -9,-2zm-10 32l0 -25 8 0c3,0 5,0 7,1 1,0 2,1 3,2 1,1 1,2 1,4 0,1 -1,3 -2,4 -1,2 -3,2 -5,2 1,1 2,1 2,2 1,1 2,2 4,5l3 5 -5 0 -2 -4c-2,-3 -3,-5 -4,-6 -1,-1 -2,-1 -4,-1l-2 0 0 11 -4 0zm4 -14l5 0c2,0 4,-1 5,-1 0,-1 1,-2 1,-3 0,-1 0,-2 -1,-2 0,-1 -1,-1 -1,-1 -1,-1 -3,-1 -4,-1l-5 0 0 8z"/>
 </g>
</svg>
